<svg xmlns="http://www.w3.org/2000/svg" viewBox="0 0 512 512">
  <defs>
    <linearGradient id="bg" x1="0%" y1="0%" x2="100%" y2="100%">
      <stop offset="0%" stop-color="#006994"/>
      <stop offset="100%" stop-color="#003844"/>
    </linearGradient>
    <linearGradient id="water" x1="0%" y1="0%" x2="0%" y2="100%">
      <stop offset="0%" stop-color="#0099aa" stop-opacity="0.5"/>
      <stop offset="100%" stop-color="#003844" stop-opacity="0"/>
    </linearGradient>
  </defs>
  <rect width="512" height="512" rx="96" fill="url(#bg)"/>
  <ellipse cx="256" cy="370" rx="240" ry="120" fill="url(#water)"/>
  <!-- 泡 -->
  <circle cx="100" cy="140" r="14" fill="none" stroke="rgba(255,255,255,0.4)" stroke-width="4"/>
  <circle cx="155" cy="90" r="8" fill="none" stroke="rgba(255,255,255,0.3)" stroke-width="3"/>
  <circle cx="400" cy="160" r="11" fill="none" stroke="rgba(255,255,255,0.35)" stroke-width="3"/>
  <circle cx="440" cy="100" r="6" fill="none" stroke="rgba(255,255,255,0.25)" stroke-width="2.5"/>
  <!-- メイン魚 -->
  <ellipse cx="256" cy="250" rx="102" ry="70" fill="#ff8c1a"/>
  <ellipse cx="290" cy="250" rx="13" ry="70" fill="white" opacity="0.9"/>
  <ellipse cx="234" cy="250" rx="11" ry="64" fill="white" opacity="0.9"/>
  <ellipse cx="188" cy="250" rx="11" ry="54" fill="white" opacity="0.8"/>
  <ellipse cx="290" cy="250" rx="13" ry="70" fill="none" stroke="black" stroke-width="3"/>
  <ellipse cx="234" cy="250" rx="11" ry="64" fill="none" stroke="black" stroke-width="2.5"/>
  <!-- 尾びれ -->
  <polygon points="154,208 112,180 134,250 112,320 154,292" fill="#ff8c1a"/>
  <!-- 目 -->
  <circle cx="325" cy="232" r="20" fill="white"/>
  <circle cx="330" cy="232" r="11" fill="#1a1a2e"/>
  <circle cx="335" cy="226" r="5" fill="white"/>
  <!-- 背びれ -->
  <polygon points="238,180 262,145 308,175" fill="#ff8c1a"/>
  <!-- コイン群 -->
  <circle cx="400" cy="350" r="38" fill="#ffd166" stroke="#c8a400" stroke-width="4"/>
  <text x="400" y="362" font-size="36" text-anchor="middle" font-weight="bold" fill="#8B6914" font-family="sans-serif">G</text>
  <circle cx="440" cy="390" r="24" fill="#ffd166" stroke="#c8a400" stroke-width="3" opacity="0.7"/>
  <circle cx="360" cy="390" r="20" fill="#ffd166" stroke="#c8a400" stroke-width="3" opacity="0.5"/>
  <!-- タイトル -->
  <text x="256" y="468" font-size="30" text-anchor="middle" fill="#ffd166" font-weight="bold" font-family="sans-serif">トロピカル出荷場</text>
</svg>
